<svg width="113" height="92" viewBox="0 0 113 92" fill="none" xmlns="http://www.w3.org/2000/svg">
<path d="M100.625 48.6621H12.2544C10.4013 48.6621 8.8949 50.2388 9.0563 52.0913C10.9931 74.1475 31.4671 91.5034 56.4365 91.5034C81.4059 91.5034 101.88 74.1475 103.817 52.0913C103.984 50.2388 102.478 48.6621 100.625 48.6621Z" fill="#FF6633"/>
<path d="M40.4875 15.6592C39.5012 15.6592 38.5208 15.2156 37.8812 14.3643C34.6531 10.1077 28.5199 7.45787 21.8785 7.45787C15.2372 7.45787 9.10393 10.1017 5.87591 14.3643C4.78197 15.8091 2.7256 16.0849 1.29092 14.9878C-0.149734 13.8907 -0.424714 11.8283 0.669227 10.3895C5.1765 4.44231 13.1031 0.893188 21.8785 0.893188C30.654 0.893188 38.5806 4.44231 43.0938 10.3895C44.1878 11.8343 43.9068 13.8907 42.4721 14.9878C41.8743 15.4434 41.1809 15.6592 40.4875 15.6592Z" fill="#414141"/>
<path d="M109.603 15.6592C108.617 15.6592 107.637 15.2156 106.997 14.3643C103.769 10.1077 97.6356 7.45787 90.9943 7.45787C84.3529 7.45787 78.2197 10.1017 74.9916 14.3643C73.8977 15.8091 71.8413 16.0849 70.4066 14.9878C68.966 13.8907 68.691 11.8283 69.7849 10.3895C74.2922 4.44231 82.2188 0.893188 90.9943 0.893188C99.7697 0.893188 107.696 4.44231 112.21 10.3895C113.304 11.8343 113.023 13.8907 111.588 14.9878C110.99 15.4434 110.297 15.6592 109.603 15.6592Z" fill="#414141"/>
</svg>
