<svg width="31" height="30" viewBox="0 0 31 30" fill="none" xmlns="http://www.w3.org/2000/svg">
<g clip-path="url(#clip0_1_7570)">
<path d="M3.97265 23.0892C3.97265 17.325 0.986816 13.3667 0.986816 10.5892C0.986816 7.8117 2.58348 1.97754 15.361 1.97754C28.1385 1.97754 30.0135 9.82504 30.0135 12.88C30.0143 27.1859 3.97265 33.2975 3.97265 23.0892Z" fill="#FCD5BA"/>
<path d="M13.5909 20.934C13.4342 21.0907 13.2225 21.1782 13.0017 21.1782C12.7809 21.1782 12.5684 21.0907 12.4125 20.934L7.41252 15.934C7.08669 15.6082 7.08752 15.0807 7.41252 14.7557L8.59085 13.5774C8.91669 13.2515 9.44419 13.2515 9.76919 13.5774L13.0017 16.809L21.2342 8.57738C21.56 8.25155 22.0875 8.25155 22.4125 8.57738L23.5908 9.75572C23.9167 10.0815 23.9167 10.609 23.5908 10.934L13.5909 20.934Z" fill="#FF6633"/>
<path d="M9.28637 15.9341C8.96053 15.6082 8.96137 15.0807 9.28637 14.7557L10.1164 13.9257L9.76803 13.5774C9.4422 13.2515 8.9147 13.2515 8.5897 13.5774L7.41137 14.7557C7.08553 15.0816 7.08553 15.6091 7.41137 15.9341L12.4114 20.9341C12.568 21.0907 12.7797 21.1782 13.0005 21.1782C13.2214 21.1782 13.4339 21.0907 13.5897 20.9341L13.938 20.5857L9.28637 15.9341Z" fill="black" fill-opacity="0.1"/>
</g>
<defs>
<clipPath id="clip0_1_7570">
<rect width="30" height="30" fill="white" transform="translate(0.5)"/>
</clipPath>
</defs>
</svg>
